<svg width="128" height="128" viewBox="0 0 128 128" fill="none" xmlns="http://www.w3.org/2000/svg">
<rect width="128" height="128" fill="white"/>
<path d="M14.6 61.888H21.392V54.904H26.096V73H21.392V65.536H14.6V73H9.896V54.904H14.6V61.888Z" fill="black"/>
<path d="M37.0722 63.352L31.4322 54.904H37.2402L39.6882 59.584L42.7122 54.904H48.5202L42.5442 63.352L49.2882 73H43.5522L39.9282 67.096L35.6802 73H29.9922L33.5322 68.176L37.0722 63.352Z" fill="black"/>
<path d="M52.3612 73L55.4332 54.904H60.0892L63.7132 64.552L67.3132 54.904H71.9692L75.0412 73H70.3612L68.8012 62.584L64.5292 73H62.6572L58.6012 62.584L57.0412 73H52.3612Z" fill="black"/>
<path d="M113.152 59.536C112.64 59.12 112.128 58.816 111.616 58.624C111.104 58.416 110.608 58.312 110.128 58.312C109.52 58.312 109.024 58.456 108.64 58.744C108.256 59.032 108.064 59.408 108.064 59.872C108.064 60.192 108.16 60.456 108.352 60.664C108.544 60.872 108.792 61.056 109.096 61.216C109.416 61.36 109.768 61.488 110.152 61.6C110.552 61.712 110.944 61.832 111.328 61.96C112.864 62.472 113.984 63.16 114.688 64.024C115.408 64.872 115.768 65.984 115.768 67.36C115.768 68.288 115.608 69.128 115.288 69.88C114.984 70.632 114.528 71.28 113.92 71.824C113.328 72.352 112.592 72.76 111.712 73.048C110.848 73.352 109.864 73.504 108.76 73.504C106.472 73.504 104.352 72.824 102.4 71.464L104.416 67.672C105.12 68.296 105.816 68.76 106.504 69.064C107.192 69.368 107.872 69.52 108.544 69.52C109.312 69.52 109.88 69.344 110.248 68.992C110.632 68.64 110.824 68.24 110.824 67.792C110.824 67.52 110.776 67.288 110.68 67.096C110.584 66.888 110.424 66.704 110.2 66.544C109.976 66.368 109.68 66.208 109.312 66.064C108.96 65.92 108.528 65.76 108.016 65.584C107.408 65.392 106.808 65.184 106.216 64.96C105.64 64.72 105.12 64.408 104.656 64.024C104.208 63.64 103.84 63.16 103.552 62.584C103.28 61.992 103.144 61.248 103.144 60.352C103.144 59.456 103.288 58.648 103.576 57.928C103.88 57.192 104.296 56.568 104.824 56.056C105.368 55.528 106.024 55.12 106.792 54.832C107.576 54.544 108.448 54.4 109.408 54.4C110.304 54.4 111.24 54.528 112.216 54.784C113.192 55.024 114.128 55.384 115.024 55.864L113.152 59.536Z" fill="black"/>
<circle cx="89.5" cy="64.5" r="9" fill="white" stroke="black"/>
<g clip-path="url(#clip0_1_4)">
<path d="M83.25 70.75C83.25 67.2988 86.0481 64.5 89.5 64.5M89.5 64.5C92.9512 64.5 95.75 67.2988 95.75 70.75M89.5 64.5C91.2256 64.5 92.625 63.1013 92.625 61.375C92.625 59.6494 91.2256 58.25 89.5 58.25C87.7737 58.25 86.375 59.6494 86.375 61.375C86.375 63.1013 87.7737 64.5 89.5 64.5Z" stroke="black" stroke-width="1.5" stroke-linecap="round" stroke-linejoin="round"/>
</g>
<g filter="url(#filter0_b_1_4)">
<rect x="77" y="52" width="25" height="24" rx="12" fill="white" fill-opacity="0.2"/>
</g>
<defs>
<filter id="filter0_b_1_4" x="75" y="50" width="29" height="28" filterUnits="userSpaceOnUse" color-interpolation-filters="sRGB">
<feFlood flood-opacity="0" result="BackgroundImageFix"/>
<feGaussianBlur in="BackgroundImageFix" stdDeviation="1"/>
<feComposite in2="SourceAlpha" operator="in" result="effect1_backgroundBlur_1_4"/>
<feBlend mode="normal" in="SourceGraphic" in2="effect1_backgroundBlur_1_4" result="shape"/>
</filter>
<clipPath id="clip0_1_4">
<rect width="15" height="15" fill="white" transform="translate(82 57)"/>
</clipPath>
</defs>
</svg>
